<?xml version="1.0" encoding="UTF-8"?>
<svg id="Capa_1" data-name="Capa 1" xmlns="http://www.w3.org/2000/svg" viewBox="0 0 283.46 255.12">
  <g>
    <g>
      <path d="M100,171.88l-28.7-28.8c-6.34-6.37-16.65-6.39-23.02-.05h0c-1.18,1.18-1.19,3.09,0,4.28l38.05,38.2,13.68-13.62Z"/>
      <path d="M99.69,199.43l26.62-26.51h0c3.05-3.03,3.06-7.96.02-11L57.43,92.71c.58-3.27.3-6.73-1.04-10.03-3.85-9.49-14.78-13.98-24.22-9.83s-13.28,14.82-9.4,23.87c3.64,8.47,12.99,12.81,21.7,10.33l57.91,58.16c1.19,1.19,1.18,3.12,0,4.31l-16.3,16.23c-1.19,1.19-1.2,3.12,0,4.31l9.32,9.36c1.19,1.19,3.12,1.2,4.31,0ZM45.59,98.12c-6.47,4.46-15.18.77-16.48-6.97-.66-3.9,1.06-7.97,4.32-10.21,6.47-4.46,15.18-.77,16.48,6.97.66,3.9-1.06,7.97-4.32,10.21Z"/>
    </g>
    <g>
      <path d="M97.87,86.37l28.8-28.7c6.37-6.34,6.39-16.65.05-23.02h0c-1.18-1.18-3.09-1.19-4.28,0l-38.2,38.05,13.62,13.68Z"/>
      <path d="M70.33,86.06l26.51,26.62h0c3.03,3.05,7.96,3.06,11,.02l69.2-68.91c3.27.58,6.73.3,10.03-1.04,9.49-3.85,13.98-14.78,9.83-24.22-3.96-9.01-14.82-13.28-23.87-9.4-8.47,3.64-12.81,12.99-10.33,21.7l-58.16,57.91c-1.19,1.19-3.12,1.18-4.31,0l-16.23-16.3c-1.19-1.19-3.12-1.2-4.31,0l-9.36,9.32c-1.19,1.19-1.2,3.12,0,4.31ZM171.63,31.96c-4.46-6.47-.77-15.18,6.97-16.48,3.9-.66,7.97,1.06,10.21,4.32,4.46,6.47.77,15.18-6.97,16.48-3.9.66-7.97-1.06-10.21-4.32Z"/>
    </g>
    <g>
      <path d="M183.47,83.23l28.7,28.81c6.35,6.37,16.65,6.39,23.02.05h0c1.18-1.18,1.19-3.09,0-4.28l-38.05-38.2-13.68,13.62Z"/>
      <path d="M183.78,55.69l-26.62,26.51h0c-3.05,3.03-3.06,7.96-.02,11l68.91,69.2c-.58,3.27-.3,6.73,1.04,10.03,3.85,9.49,14.78,13.98,24.22,9.83,9.01-3.96,13.28-14.82,9.4-23.87-3.64-8.47-12.99-12.81-21.7-10.33l-57.91-58.16c-1.19-1.19-1.18-3.12,0-4.31l16.3-16.23c1.19-1.19,1.2-3.12,0-4.31l-9.32-9.36c-1.19-1.19-3.12-1.2-4.31,0ZM237.88,156.99c6.47-4.46,15.18-.77,16.48,6.97.66,3.9-1.06,7.97-4.32,10.21-6.47,4.46-15.18.77-16.48-6.97-.66-3.9,1.06-7.97,4.32-10.21Z"/>
    </g>
    <g>
      <path d="M185.6,168.76l-28.81,28.69c-6.37,6.34-6.39,16.65-.05,23.02h0c1.18,1.18,3.09,1.19,4.28,0l38.21-38.04-13.62-13.68Z"/>
      <path d="M213.14,169.06l-26.51-26.62h0c-3.03-3.05-7.96-3.06-11-.02l-69.2,68.91c-3.27-.58-6.73-.3-10.03,1.04-9.49,3.85-13.98,14.78-9.83,24.22,3.96,9.01,14.82,13.28,23.87,9.4,8.47-3.64,12.81-12.99,10.33-21.7l58.16-57.91c1.19-1.19,3.12-1.18,4.31,0l16.23,16.3c1.19,1.19,3.12,1.2,4.31,0l9.36-9.32c1.19-1.19,1.2-3.12,0-4.31ZM111.83,223.16c4.46,6.47.77,15.18-6.97,16.48-3.9.66-7.97-1.06-10.21-4.32-4.46-6.47-.77-15.18,6.97-16.48,3.9-.66,7.97,1.06,10.21,4.32Z"/>
    </g>
  </g>
  <path d="M156.75,112.54c-8.29-8.29-21.74-8.29-30.04,0s-8.29,21.74,0,30.04,21.74,8.29,30.04,0c8.29-8.29,8.29-21.74,0-30.04ZM150.4,136.23c-4.79,4.79-12.55,4.79-17.34,0-4.79-4.79-4.79-12.55,0-17.34,4.79-4.79,12.55-4.79,17.34,0,4.79,4.79,4.79,12.55,0,17.34Z"/>
</svg>